<svg xmlns="http://www.w3.org/2000/svg" xmlns:xlink="http://www.w3.org/1999/xlink" viewBox="0 0 64 64"><defs><style>.cls-1{fill:#bafadf;}.cls-2{fill:#04d8e4;}.cls-3{fill:#d0db35;}.cls-4{fill:#09331b;}.cls-5{fill:#fff;}.cls-6{fill:#d7591c;}.cls-7{fill:none;}</style><symbol id="New_Symbol_1" data-name="New Symbol 1" viewBox="0 0 256 256"><path class="cls-1" d="M101.34,105.5c1.63,5.81,3.92,11.38,7.61,15.78a28,28,0,0,0,6.4,5.56,25.92,25.92,0,0,0,3.71,2,15.57,15.57,0,0,0,3.89,1,13.83,13.83,0,0,0,7.79-1.17,12.29,12.29,0,0,0,1.73-1,10.21,10.21,0,0,0,1.52-1.25,7,7,0,0,0,1.95-3.14,4.12,4.12,0,0,0,.08-1.71,3.89,3.89,0,0,0-.68-1.61,5.61,5.61,0,0,0-3.23-2,7.35,7.35,0,0,0-4.1.18,4.41,4.41,0,0,0-1.75,1.13,3.62,3.62,0,0,0-.87,2,3.67,3.67,0,0,1,.5-2.24,4.83,4.83,0,0,1,1.75-1.64,8,8,0,0,1,4.72-.91,7,7,0,0,1,4.57,2.15,6.17,6.17,0,0,1,1.52,5.13,9.42,9.42,0,0,1-2.28,4.68,13.67,13.67,0,0,1-4,3.11,16.07,16.07,0,0,1-9.72,1.73,17.87,17.87,0,0,1-4.78-1.33l-1.11-.53-1-.57c-.69-.4-1.37-.81-2-1.27a26.07,26.07,0,0,1-6.74-6.67,28.09,28.09,0,0,1-2.37-4.06,33.25,33.25,0,0,1-1.66-4.35A35.71,35.71,0,0,1,101.34,105.5Z"/><path class="cls-1" d="M85.42,154.69a89.23,89.23,0,0,0,10.67,5.87c3.66,1.77,7.45,3.18,11.15,5.09.93.49,1.82,1,2.79,1.62a6.7,6.7,0,0,1,2.63,2.63,4.59,4.59,0,0,1,.46,2.09,4.32,4.32,0,0,1-.67,2.3,3.56,3.56,0,0,1-1,1,3.8,3.8,0,0,1-1.2.46,5.14,5.14,0,0,1-2,0,15.25,15.25,0,0,1-5.9-2.9,20.38,20.38,0,0,1-2.36-2.09,11.93,11.93,0,0,1-1.9-2.48,26.81,26.81,0,0,0,7.87,4.15,10.34,10.34,0,0,0,2.64.54,2.75,2.75,0,0,0,1-.11c.24-.09.23-.15.24-.22a2.11,2.11,0,0,0,0-.62,4.53,4.53,0,0,0-.12-.89,5,5,0,0,0-1.11-2.1,10,10,0,0,0-2.24-1.81c-1.67-1.08-3.45-2.06-5.23-3l-5.35-3C92.21,159.18,88.75,157,85.42,154.69Z"/><path class="cls-1" d="M32.84,108.89c-3.69,4.21-9.49-.25-12,3.38-1.91,2.77,1.82,5.89,4.82,6.64s8.63-1.67,10.82-7.87"/><path class="cls-2" d="M32.84,108.89a22,22,0,0,1-2.09.83,6.88,6.88,0,0,1-2,.36c-1.43,0-2.92-.27-4.6-.26a5.6,5.6,0,0,0-2.68.62,4.38,4.38,0,0,0-1.14,1,4,4,0,0,0-.75,1.29,3.64,3.64,0,0,0-.2,1.57,4.29,4.29,0,0,0,.42,1.44,6.85,6.85,0,0,0,1.67,2.13,8.9,8.9,0,0,0,2.17,1.39,9,9,0,0,0,2.53.77,9.52,9.52,0,0,0,5.09-1,10.73,10.73,0,0,0,3.86-3.24,6.28,6.28,0,0,0,1.4-4.71,39.16,39.16,0,0,0-3.08,3.34A13.75,13.75,0,0,1,30.17,117a6.56,6.56,0,0,1-3.82,1,3.11,3.11,0,0,1-.44-.08l-.48-.14a6.52,6.52,0,0,1-.94-.41,10.36,10.36,0,0,1-1.7-1.15,5,5,0,0,1-1.22-1.44,1.86,1.86,0,0,1,.21-2.18,2.39,2.39,0,0,1,.61-.54,3.92,3.92,0,0,1,1.78-.47c1.4-.08,3,.15,4.66-.06a6.45,6.45,0,0,0,2.43-.73A3.4,3.4,0,0,0,32.84,108.89Z"/><path class="cls-1" d="M90.59,116.05c3.54,10.23,12.52,14.5,14.86,15.73s1.89,2-3.41,2.24c8.07,6.85,4.09,10-2.25,10s-9.22-1.07-11.4-2.18c5.68,4.33,6.28,7.4,2.94,8.19s-15.72,5.22-45.43-18.84S22.7,81.87,27,73.7c5-9.37,24.6-31.83,50.17-19.56,12,5.77,20.1,21,17.24,36C92.27,101.47,88.26,109.3,90.59,116.05Z"/><path class="cls-2" d="M45.16,132.07c-13.08-10.59-20.69-22.51-22.62-35.43A39.13,39.13,0,0,1,26,73.15,51.4,51.4,0,0,1,43.78,54.8c10.89-6.55,22.62-7.14,33.92-1.72,13.07,6.27,20.76,22.29,17.89,37.26C94.9,94,94,97.26,93.23,100.18c-1.68,6.26-3,11.21-1.53,15.49,3.23,9.33,11.29,13.52,13.94,14.89l.36.19c.67.35,2.24,1.18,1.93,2.54-.21.92-1.07,1.44-3.13,1.69,2.51,2.62,3.42,4.91,2.7,6.83-.81,2.17-3.63,3.39-7.72,3.35a39.52,39.52,0,0,1-6.71-.56q1.79,2.27,1.41,4.05c-.15.71-.73,2-2.88,2.49l-.42.1a23.34,23.34,0,0,1-2.58.54C82.65,152.67,69.69,151.94,45.16,132.07ZM99.8,142.82c2.92,0,5.08-.69,5.51-1.83s-1-3.54-4-6.08L99,133l3-.12c1.17,0,2-.12,2.58-.2h0c-2.85-1.48-11.54-6-15.07-16.21h0c-1.72-5-.31-10.21,1.48-16.86.77-2.87,1.65-6.13,2.32-9.67C96,75.94,88.83,61,76.69,55.2,66,50.05,55.31,50.6,45,56.81A49.55,49.55,0,0,0,28.06,74.25a36.6,36.6,0,0,0-3.2,22c1.83,12.32,9.16,23.74,21.77,34,12,9.73,22.55,15.89,31.3,18.28,6.9,1.9,10.8.91,12.67.44l.47-.11c.38-.09,1-.3,1.12-.7.14-.63-.66-2.49-4.51-5.42l1.24-2C90.94,141.8,93.66,142.76,99.8,142.82Z"/><path class="cls-3" d="M51.65,90.74c-1.12-7.54,3.4-15.53,10.18-16.54s13,3.93,14.17,11.48-3.22,15.08-11,16.23C58.26,102.92,52.59,97.08,51.65,90.74Z"/><path class="cls-4" d="M51.19,90.81C50,82.73,54.93,74.75,61.76,73.73c7.1-1,13.55,4.16,14.7,11.88,1.23,8.27-3.75,15.63-11.35,16.77C58,103.44,52.15,97.26,51.19,90.81Zm.92-.13c.9,6,6.28,11.75,12.86,10.77,7.08-1.06,11.72-8,10.56-15.7-1.07-7.2-7.06-12.07-13.63-11.09C55.56,75.6,51,83.09,52.11,90.68Z"/><path class="cls-3" d="M25.31,94.51c-.89-6,.8-12,5-12.66,3.22-.48,7.38,4.22,8.17,9.56.9,6-1.2,11.77-5.4,12.39C29.37,104.35,26.06,99.54,25.31,94.51Z"/><path class="cls-4" d="M24.85,94.58c-.88-5.88.7-12.5,5.35-13.2,3.57-.53,7.88,4.41,8.71,10,1,6.62-1.56,12.29-5.8,12.93C29.12,104.86,25.62,99.74,24.85,94.58Zm.92-.14c.71,4.71,3.77,9.41,7.21,8.9,3.71-.55,5.91-5.76,5-11.86-.74-5-4.6-9.62-7.64-9.17C26.29,82.91,25,89,25.77,94.44Z"/><ellipse class="cls-4" cx="59.49" cy="85.92" rx="7.19" ry="6.72" transform="translate(-38.16 123.14) rotate(-76.16)"/><circle class="cls-5" cx="61.01" cy="79.75" r="3.79"/><circle class="cls-5" cx="63.02" cy="83.21" r="1.86"/><ellipse class="cls-4" cx="29.58" cy="90.36" rx="3.95" ry="5.41" transform="translate(-12.57 5.14) rotate(-8.19)"/><path class="cls-4" d="M49.08,92.35s-.56,7.18-3.32,8.81c-4.59,2.7-6.93-.49-6.93-.49s2.35,7.17,8.54,6.25S51,95,49.08,92.35Z"/><path class="cls-6" d="M46.74,103a6.91,6.91,0,0,1,4.52-1.7c-.11,2.79-1.12,5.22-3.89,5.63a6.61,6.61,0,0,1-2.69-.12A7.19,7.19,0,0,1,46.74,103Z"/><path class="cls-1" d="M69.24,108.23c-2.44,2.18-8.11-1-11.09,2.3-2.46,2.69-.88,8,2.12,8.74s7.34-3,10.17-7.59"/><path class="cls-2" d="M69.24,108.23a8.77,8.77,0,0,1-2.1.17,19.48,19.48,0,0,1-2.11-.12,14.6,14.6,0,0,0-4.67,0,5.41,5.41,0,0,0-2.37,1.1,5.34,5.34,0,0,0-1.6,2.16,7.22,7.22,0,0,0,0,5.06,6.39,6.39,0,0,0,1.33,2.23,4.9,4.9,0,0,0,2.4,1.42,5.37,5.37,0,0,0,2.71-.12,9.61,9.61,0,0,0,2.28-1A13,13,0,0,0,68.63,116a7.05,7.05,0,0,0,1.81-4.28A13.32,13.32,0,0,0,67,114.52a26.24,26.24,0,0,1-3.1,2.73,4.45,4.45,0,0,1-3.35,1.07,2.5,2.5,0,0,1-1.32-.87,5.7,5.7,0,0,1-.9-1.58,5.23,5.23,0,0,1-.1-3.61,3.43,3.43,0,0,1,1-1.41,3.26,3.26,0,0,1,.73-.47,4,4,0,0,1,.85-.33,8.4,8.4,0,0,1,2-.25c.7,0,1.43,0,2.18,0a13.22,13.22,0,0,0,2.32-.15,3.63,3.63,0,0,0,1.16-.47A2,2,0,0,0,69.24,108.23Z"/><circle class="cls-5" cx="29.98" cy="85.82" r="2.64"/><circle class="cls-5" cx="31.53" cy="88.13" r="1.29"/><path class="cls-1" d="M147.74,62.5c-3.22,5.11-7,9.79-11.79,13A28,28,0,0,1,128.24,79a26.57,26.57,0,0,1-4.12.82,15.09,15.09,0,0,1-4-.1A13.86,13.86,0,0,1,113,76.35a12.42,12.42,0,0,1-1.37-1.44,9.91,9.91,0,0,1-1.1-1.63,6.92,6.92,0,0,1-1-3.56,4.11,4.11,0,0,1,.41-1.67A3.77,3.77,0,0,1,111,66.71a5.53,5.53,0,0,1,3.66-1,7.3,7.3,0,0,1,3.88,1.33,4.42,4.42,0,0,1,1.35,1.59,3.56,3.56,0,0,1,.28,2.13,3.71,3.71,0,0,0,.16-2.29,4.91,4.91,0,0,0-1.22-2.07,8,8,0,0,0-4.26-2.21,7,7,0,0,0-5,.75A6.15,6.15,0,0,0,107,69.46a9.4,9.4,0,0,0,.85,5.14,13.76,13.76,0,0,0,2.91,4.11,16.09,16.09,0,0,0,8.83,4.42,17.55,17.55,0,0,0,5,.08c.41,0,.81-.13,1.22-.19l1.16-.25c.78-.18,1.55-.39,2.3-.63a26.48,26.48,0,0,0,8.36-4.48A29.1,29.1,0,0,0,141,74.44a33.55,33.55,0,0,0,2.83-3.7A36,36,0,0,0,147.74,62.5Z"/><path class="cls-1" d="M180.75,105.7a87.85,87.85,0,0,1-10.67,5.87c-3.66,1.77-7.45,3.18-11.15,5.09-.93.49-1.83,1-2.79,1.62a6.66,6.66,0,0,0-2.63,2.64,4.42,4.42,0,0,0-.46,2.08,4.32,4.32,0,0,0,.67,2.3,3.32,3.32,0,0,0,1,1,3.64,3.64,0,0,0,1.19.47,5.18,5.18,0,0,0,2,0,15,15,0,0,0,5.89-2.9,20.48,20.48,0,0,0,2.37-2.09,12.66,12.66,0,0,0,1.9-2.48,24.17,24.17,0,0,1-5.16,3.09,23.88,23.88,0,0,1-2.72,1.06,9.77,9.77,0,0,1-2.64.54,3.07,3.07,0,0,1-1-.1c-.23-.1-.22-.16-.23-.22a1.83,1.83,0,0,1,0-.63,3.89,3.89,0,0,1,.12-.89,4.89,4.89,0,0,1,1.11-2.1,10,10,0,0,1,2.24-1.81c1.66-1.08,3.45-2,5.23-3l5.35-3C174,110.19,177.42,108,180.75,105.7Z"/><path class="cls-1" d="M216.87,59.9c3.68,4.22,9.49-.25,12,3.38,1.91,2.77-1.82,5.89-4.82,6.64s-8.63-1.67-10.83-7.87"/><path class="cls-2" d="M216.87,59.9a22,22,0,0,0,2.09.83,6.88,6.88,0,0,0,2,.36c1.43,0,2.91-.27,4.6-.26a5.54,5.54,0,0,1,2.67.62,4.25,4.25,0,0,1,1.14,1,4,4,0,0,1,.76,1.29,3.51,3.51,0,0,1,.19,1.57,4.22,4.22,0,0,1-.41,1.44,6.85,6.85,0,0,1-1.67,2.13,8.9,8.9,0,0,1-2.17,1.39,9.11,9.11,0,0,1-2.53.77,9.42,9.42,0,0,1-5.09-1,10.64,10.64,0,0,1-3.86-3.24,6.33,6.33,0,0,1-1.41-4.71,36.13,36.13,0,0,1,3.08,3.34A14.27,14.27,0,0,0,219.53,68a6.66,6.66,0,0,0,3.82,1l.45-.07c.16,0,.32-.09.48-.15a7,7,0,0,0,.94-.41,11,11,0,0,0,1.7-1.14,5,5,0,0,0,1.22-1.45,1.88,1.88,0,0,0,.18-1.48,2.46,2.46,0,0,0-.39-.7,2.39,2.39,0,0,0-.61-.54,3.8,3.8,0,0,0-1.78-.46c-1.41-.08-3,.14-4.66-.06a6.55,6.55,0,0,1-2.44-.73A3.44,3.44,0,0,1,216.87,59.9Z"/><path class="cls-1" d="M159.12,67.06c-3.54,10.23-12.52,14.5-14.86,15.74s-1.89,2,3.4,2.23c-8.07,6.85-4.08,10,2.26,10s9.22-1.07,11.4-2.18c-5.68,4.33-6.28,7.41-2.95,8.19s15.73,5.22,45.44-18.84S227,32.88,222.68,24.71c-5-9.37-24.61-31.82-50.17-19.56-12,5.77-20.11,21-17.24,36C157.44,52.48,161.45,60.32,159.12,67.06Z"/><path class="cls-2" d="M161.1,102.79c-1.07-.16-1.92-.37-2.57-.53l-.43-.11c-2.14-.51-2.72-1.77-2.87-2.49-.26-1.18.22-2.54,1.4-4a37.33,37.33,0,0,1-6.7.56c-4.1,0-6.91-1.18-7.72-3.35-.72-1.92.19-4.21,2.7-6.82-2.07-.26-2.92-.77-3.13-1.7-.31-1.36,1.26-2.19,1.93-2.54l.36-.19C146.72,80.2,154.78,76,158,66.68c1.48-4.28.15-9.23-1.53-15.49-.78-2.91-1.67-6.22-2.36-9.83-2.87-15,4.82-31,17.88-37.26,11.31-5.43,23-4.83,33.92,1.71a51.31,51.31,0,0,1,17.79,18.35,39,39,0,0,1,3.46,23.5c-1.93,12.91-9.54,24.83-22.62,35.42C180,103,167.06,103.68,161.1,102.79Zm-.31-11,1.24,2c-3.85,2.93-4.65,4.79-4.51,5.43.08.39.74.6,1.12.69l.46.11c1.88.48,5.78,1.46,12.68-.43,8.74-2.4,19.27-8.55,31.3-18.29C215.69,71.05,223,59.63,224.85,47.31a36.6,36.6,0,0,0-3.21-22A49.49,49.49,0,0,0,204.72,7.82c-10.32-6.21-21-6.75-31.7-1.61C160.88,12,153.74,27,156.42,40.92c.67,3.53,1.55,6.79,2.32,9.66,1.79,6.65,3.2,11.91,1.48,16.87h0c-3.53,10.21-12.22,14.72-15.07,16.2h0c.59.08,1.42.15,2.59.2l3,.12-2.29,1.94c-3,2.54-4.49,4.82-4,6.09s2.59,1.85,5.51,1.82C156.05,93.77,158.77,92.81,160.79,91.78Z"/><path class="cls-3" d="M198.06,41.76c1.12-7.55-3.4-15.54-10.18-16.55s-13,3.93-14.17,11.48,3.22,15.08,11,16.24C191.45,53.94,197.11,48.09,198.06,41.76Z"/><path class="cls-4" d="M184.6,53.39c-7.6-1.13-12.59-8.5-11.35-16.77,1.15-7.71,7.6-12.93,14.7-11.87,6.83,1,11.78,9,10.57,17.08C197.56,48.27,191.74,54.45,184.6,53.39Zm3.21-27.72c-6.58-1-12.56,3.89-13.64,11.09-1.15,7.75,3.49,14.65,10.57,15.7,6.58,1,12-4.78,12.85-10.77C198.73,34.1,194.15,26.62,187.81,25.67Z"/><path class="cls-3" d="M224.4,45.52c.89-6-.8-12-5-12.66-3.23-.48-7.38,4.22-8.18,9.57-.89,6,1.21,11.76,5.4,12.39C220.34,55.36,223.65,50.55,224.4,45.52Z"/><path class="cls-4" d="M216.59,55.28c-4.23-.63-6.77-6.31-5.79-12.92.83-5.56,5.14-10.5,8.7-10,4.66.69,6.24,7.31,5.36,13.19C224.09,50.75,220.59,55.87,216.59,55.28Zm2.78-22c-3-.45-6.9,4.18-7.64,9.18-.91,6.09,1.29,11.3,5,11.85,3.44.51,6.5-4.18,7.2-8.89C224.74,40,223.42,33.93,219.37,33.32Z"/><ellipse class="cls-4" cx="190.22" cy="36.93" rx="6.72" ry="7.19" transform="translate(-3.31 46.56) rotate(-13.84)"/><circle class="cls-5" cx="188.7" cy="30.76" r="3.79"/><circle class="cls-5" cx="186.69" cy="34.22" r="1.86"/><ellipse class="cls-4" cx="220.13" cy="41.37" rx="5.41" ry="3.95" transform="translate(147.82 253.36) rotate(-81.81)"/><path class="cls-4" d="M200.62,43.36s.57,7.19,3.32,8.81c4.6,2.7,6.93-.49,6.93-.49s-2.34,7.17-8.53,6.25S198.72,46,200.62,43.36Z"/><path class="cls-6" d="M203,54a6.9,6.9,0,0,0-4.52-1.69c.11,2.79,1.12,5.21,3.89,5.62a6.44,6.44,0,0,0,2.69-.12A7.19,7.19,0,0,0,203,54Z"/><path class="cls-1" d="M180.46,59.24c2.45,2.18,8.11-1,11.1,2.31,2.46,2.68.88,8-2.13,8.73s-7.33-3-10.16-7.59"/><path class="cls-2" d="M180.46,59.24a8.85,8.85,0,0,0,2.11.17,19.16,19.16,0,0,0,2.1-.12,14.9,14.9,0,0,1,4.67,0,5.42,5.42,0,0,1,2.38,1.11,5.22,5.22,0,0,1,1.59,2.15,7.17,7.17,0,0,1,0,5.06A6.19,6.19,0,0,1,192,69.83a4.76,4.76,0,0,1-2.39,1.42,5.37,5.37,0,0,1-2.71-.12,9.81,9.81,0,0,1-2.28-1A13.34,13.34,0,0,1,181.08,67a7,7,0,0,1-1.81-4.29,13.32,13.32,0,0,1,3.44,2.84,25.18,25.18,0,0,0,3.09,2.73,4.48,4.48,0,0,0,3.36,1.07,2.5,2.5,0,0,0,1.32-.87,5.75,5.75,0,0,0,.9-1.57,5.26,5.26,0,0,0,.1-3.62,3.46,3.46,0,0,0-1-1.4,3.54,3.54,0,0,0-.73-.48,4.55,4.55,0,0,0-.85-.33,9,9,0,0,0-2-.24c-.7,0-1.43,0-2.18,0a13.22,13.22,0,0,1-2.32-.15,3.42,3.42,0,0,1-1.16-.47A2,2,0,0,1,180.46,59.24Z"/><circle class="cls-5" cx="219.73" cy="36.84" r="2.64"/><circle class="cls-5" cx="218.18" cy="39.14" r="1.29"/><path class="cls-1" d="M146.63,193.72c-.5,8.65,0,17.27,3,25a39.75,39.75,0,0,0,6.07,10.54,35.2,35.2,0,0,0,4.12,4.39,21.69,21.69,0,0,0,4.78,3.25,19.91,19.91,0,0,0,11.12,2,16.47,16.47,0,0,0,2.8-.53,13.9,13.9,0,0,0,2.64-1,10,10,0,0,0,4.12-3.35,5.89,5.89,0,0,0,.91-2.29,5.4,5.4,0,0,0-.17-2.49,8,8,0,0,0-3.46-4.18,10.47,10.47,0,0,0-5.64-1.68,6.26,6.26,0,0,0-2.9.72,5.14,5.14,0,0,0-2.11,2.26,5.26,5.26,0,0,1,1.73-2.81,7.1,7.1,0,0,1,3.14-1.4,11.57,11.57,0,0,1,6.82,1,10.1,10.1,0,0,1,5.2,5,8.8,8.8,0,0,1-.34,7.67,13.4,13.4,0,0,1-5.28,5.28,19.61,19.61,0,0,1-6.82,2.38,23.12,23.12,0,0,1-14-2.21,25.8,25.8,0,0,1-5.86-4c-.42-.4-.84-.83-1.25-1.24l-1.16-1.26c-.75-.86-1.48-1.74-2.16-2.66a38,38,0,0,1-6-12.2,41,41,0,0,1-1.3-6.62,46.57,46.57,0,0,1-.22-6.67A51.34,51.34,0,0,1,146.63,193.72Z"/><path class="cls-1" d="M85.74,212.63a125.18,125.18,0,0,0,11.73,13c4.13,4.12,8.61,7.8,12.74,12.12,1,1.09,2,2.26,3,3.5a9.51,9.51,0,0,1,2.34,4.81,6.44,6.44,0,0,1-.36,3,6.11,6.11,0,0,1-2,2.8,4.88,4.88,0,0,1-1.84.87,5.27,5.27,0,0,1-1.84.07,7.74,7.74,0,0,1-2.76-1,21.83,21.83,0,0,1-6.64-6.7,28.88,28.88,0,0,1-2.23-3.94,17.14,17.14,0,0,1-1.42-4.25,35.12,35.12,0,0,0,5.55,6.6,32.23,32.23,0,0,0,3.19,2.71,14.91,14.91,0,0,0,3.33,2,4.15,4.15,0,0,0,1.39.32c.36,0,.38-.11.43-.19a3.42,3.42,0,0,0,.34-.83,5.86,5.86,0,0,0,.25-1.26,7,7,0,0,0-.52-3.37,14.65,14.65,0,0,0-2.19-3.51c-1.76-2.24-3.72-4.4-5.67-6.56l-5.87-6.52C92.85,221.9,89.16,217.35,85.74,212.63Z"/><path class="cls-1" d="M54.1,181.07c-5.34-6-13.61.49-17.26-4.68-2.78-3.95,2.53-8.48,6.83-9.59s12.39,2.28,15.63,11.14"/><path class="cls-2" d="M54.1,181.07a30.74,30.74,0,0,0-3-1.16,9.83,9.83,0,0,0-2.93-.49c-2,0-4.18.43-6.6.43a7.83,7.83,0,0,1-3.84-.85,6.38,6.38,0,0,1-1.65-1.35A6,6,0,0,1,35,175.8a5.2,5.2,0,0,1-.29-2.24,6.16,6.16,0,0,1,.57-2.08,9.93,9.93,0,0,1,2.37-3.08,12.52,12.52,0,0,1,3.1-2,13.28,13.28,0,0,1,3.61-1.15,13.56,13.56,0,0,1,7.31,1.38,15.14,15.14,0,0,1,5.59,4.59,9,9,0,0,1,2.08,6.74,54,54,0,0,1-4.46-4.76,20.55,20.55,0,0,0-4.67-3.73,9.57,9.57,0,0,0-5.5-1.4c-.22,0-.43.06-.64.11s-.46.14-.68.22A8.44,8.44,0,0,0,42,169a14.78,14.78,0,0,0-2.42,1.66,7.12,7.12,0,0,0-1.73,2.09,2.68,2.68,0,0,0-.25,2.13,3.38,3.38,0,0,0,.57,1,3.6,3.6,0,0,0,.89.77,5.59,5.59,0,0,0,2.56.64c2,.09,4.3-.25,6.68,0a9.42,9.42,0,0,1,3.51,1A4.94,4.94,0,0,1,54.1,181.07Z"/><path class="cls-1" d="M130.62,207.47c0,15.53,10.2,25.52,12.8,28.29s1.61,3.62-5.67,1.43c7.74,13.07.85,15.53-7.72,12.48s-12-5.77-14.44-8.3c5.67,8.53,5,13,.16,12.49s-23.77-.27-52.82-46.8-8.4-77.7,1.28-86.76c11.12-10.39,48.26-31.66,77.19-3.06,13.62,13.45,17.44,37.92,6.57,56.87C139.71,188.48,130.61,197.23,130.62,207.47Z"/><path class="cls-2" d="M61.51,208C48.72,187.47,44,167.75,47.39,149.32c3.26-17.52,12.82-27.58,15.68-30.25,6.14-5.73,18.39-13.51,32.71-16.56,17.82-3.8,34,.89,46.81,13.53,14.78,14.61,17.72,39.94,6.83,58.9-2.63,4.58-5.38,8.65-7.8,12.24-5.21,7.7-9.33,13.79-9.32,20.29,0,14.16,9,23.61,11.95,26.72l.39.42c.75.79,2.49,2.65,1.44,4.35-.72,1.16-2.12,1.45-5.05.83,2.19,4.72,2.35,8.25.47,10.53-2.11,2.56-6.5,2.9-12,.93a55.48,55.48,0,0,1-8.84-3.9c.91,2.6.92,4.66,0,6.15-.54.9-1.92,2.35-5.07,2l-.63-.05c-1-.09-2.2-.19-3.74-.48C102.72,253.42,85.49,246.37,61.51,208Zm69.08,40.14c3.95,1.4,7.21,1.44,8.32.09,1.24-1.5.26-5.29-2.61-10.13l-2.19-3.7,4.12,1.24c1.62.48,2.78.77,3.6.94l0,0c-3.18-3.34-12.85-13.52-12.87-29h0c0-7.53,4.36-14,9.89-22.18,2.4-3.53,5.11-7.55,7.68-12,10.15-17.69,7.45-41.26-6.29-54.84-12.12-12-26.84-16.23-43.74-12.64a71.15,71.15,0,0,0-31.12,15.74C62.7,124,53.77,133.42,50.7,149.94c-3.27,17.57,1.33,36.49,13.65,56.23C76.11,225,87.51,238.26,98.26,245.61c8.47,5.79,14.22,6.28,17,6.52l.68.06c.56.06,1.55.08,1.85-.42.48-.8.27-3.69-3.58-9.47l2.61-2.09C119.05,242.55,122.29,245.13,130.59,248.09Z"/><path class="cls-3" d="M89.64,154.94c2-10.77,11.88-19.49,21.55-17.69S127,148.69,125,159.45s-11.42,19-22.46,16.89C92.9,174.54,88,164,89.64,154.94Z"/><path class="cls-4" d="M89,154.81c2.14-11.52,12.58-20,22.33-18.22,10.11,1.88,16.43,12,14.38,23-2.2,11.8-12.41,19.45-23.24,17.44C92.27,175.11,87.26,164,89,154.81Zm1.32.25c-1.6,8.55,3,18.88,12.39,20.62,10.1,1.88,19.62-5.3,21.68-16.35,1.91-10.27-3.94-19.67-13.31-21.42C102,136.23,92.31,144.24,90.3,155.06Z"/><path class="cls-3" d="M52.15,147.73c1.59-8.54,6.71-16,12.65-14.86,4.6.86,8,9.18,6.61,16.8-1.59,8.54-7.14,15.39-13.12,14.28C53.06,163,50.82,154.89,52.15,147.73Z"/><path class="cls-4" d="M51.49,147.6c1.56-8.38,6.8-16.63,13.44-15.39,5.08.95,8.62,9.65,7.14,17.58-1.75,9.43-7.86,15.94-13.9,14.82C52.48,163.55,50.12,155,51.49,147.6Zm1.32.25c-1.25,6.72.71,14.52,5.61,15.43,5.3,1,10.71-5,12.33-13.74,1.33-7.12-1.74-15.2-6.07-16C58.9,132.45,54.25,140.11,52.81,147.85Z"/><ellipse class="cls-4" cx="102.53" cy="152.06" rx="10.31" ry="9.65" transform="translate(-80.83 155.68) rotate(-57.14)"/><circle class="cls-5" cx="107.48" cy="144.4" r="5.44"/><circle class="cls-5" cx="108.58" cy="150.03" r="2.67"/><ellipse class="cls-4" cx="59.88" cy="144.09" rx="7.76" ry="5.66" transform="translate(-92.89 175.82) rotate(-79.17)"/><path class="cls-4" d="M85.41,155.91s-4.13,9.48-8.63,10.4c-7.5,1.51-9.17-3.91-9.17-3.91s-.17,10.83,8.66,12.47S86.75,160.42,85.41,155.91Z"/><path class="cls-6" d="M77.25,169.24a9.92,9.92,0,0,1,6.92-.18c-1.45,3.74-4,6.55-7.9,5.81a9.21,9.21,0,0,1-3.6-1.42A10.47,10.47,0,0,1,77.25,169.24Z"/><path class="cls-1" d="M124.62,191.29c1.87-4.31,11.13-3.67,13-9.7,1.58-5-3.68-10.93-8-10.09s-7.74,8.32-8.64,16"/><path class="cls-2" d="M124.62,191.29a12.75,12.75,0,0,1,2.64-1.49,25.69,25.69,0,0,1,2.81-1.11,21.25,21.25,0,0,0,6.08-2.81,7.94,7.94,0,0,0,2.43-2.88,7.66,7.66,0,0,0,.77-3.76,10.35,10.35,0,0,0-3-6.6,9.08,9.08,0,0,0-3.09-2.09,6.9,6.9,0,0,0-4-.41,7.7,7.7,0,0,0-3.46,1.8,13.62,13.62,0,0,0-2.36,2.7,19.06,19.06,0,0,0-2.69,6.21,10.17,10.17,0,0,0,.23,6.68,19.3,19.3,0,0,0,2.77-5.78,35.48,35.48,0,0,1,2.37-5.43c.93-1.64,2.24-3.11,3.72-3.42a3.65,3.65,0,0,1,2.25.35,7.7,7.7,0,0,1,2.11,1.5,7.52,7.52,0,0,1,2.32,4.65,4.86,4.86,0,0,1-.43,2.41,5,5,0,0,1-.65,1.06,5.82,5.82,0,0,1-.92.94,11.52,11.52,0,0,1-2.43,1.52c-.9.47-1.86.88-2.84,1.33a18.36,18.36,0,0,0-2.93,1.6,4.89,4.89,0,0,0-1.22,1.3A3,3,0,0,0,124.62,191.29Z"/><circle class="cls-5" cx="62.54" cy="138.13" r="3.78"/><circle class="cls-5" cx="63.57" cy="141.98" r="1.86"/><rect class="cls-7" width="256" height="256"/></symbol></defs><title>cake</title><g id="Layer_2" data-name="Layer 2"><g id="Layer_3" data-name="Layer 3"><use width="256" height="256" transform="scale(0.25)" xlink:href="#New_Symbol_1"/></g></g></svg>