<svg xmlns="http://www.w3.org/2000/svg" xmlns:xlink="http://www.w3.org/1999/xlink" viewBox="0 0 24 24"><defs><style>.cls-1{fill:#bafadf;}.cls-2{fill:#04d8e4;}.cls-3{fill:#d0db35;}.cls-4{fill:#09331b;}.cls-5{fill:#fff;}.cls-6{fill:#d7591c;}</style><symbol id="New_Symbol_7" data-name="New Symbol 7" viewBox="0 0 24 24"><circle class="cls-1" cx="12" cy="12" r="11.5"/><path class="cls-2" d="M12,1A11,11,0,1,1,1,12,11,11,0,0,1,12,1m0-1A12,12,0,1,0,24,12,12,12,0,0,0,12,0Z"/><path class="cls-3" d="M14.72,12.2c0-2.42-1.79-4.71-4-4.71a4,4,0,0,0-3.9,4.26A4.36,4.36,0,0,0,11,16.33C13.21,16.33,14.72,14.23,14.72,12.2Z"/><path class="cls-4" d="M11,16.48A4.5,4.5,0,0,1,6.7,11.75a4.2,4.2,0,0,1,4.05-4.41c2.19,0,4.12,2.27,4.12,4.86C14.87,14.27,13.33,16.48,11,16.48Zm-.29-8.84A3.9,3.9,0,0,0,7,11.75a4.2,4.2,0,0,0,4,4.43c2.11,0,3.53-2.06,3.53-4C14.57,9.77,12.79,7.64,10.75,7.64Z"/><path class="cls-3" d="M23.15,12.15c0-1.92-.81-3.74-2.15-3.74-1,0-2.11,1.67-2.11,3.38,0,1.92.93,3.64,2.27,3.64C22.33,15.43,23.15,13.76,23.15,12.15Z"/><path class="cls-4" d="M21.16,15.57c-1.36,0-2.42-1.66-2.42-3.78,0-1.78,1.12-3.52,2.26-3.52,1.49,0,2.3,2,2.3,3.88C23.3,13.8,22.44,15.57,21.16,15.57Zm-.16-7c-1,0-2,1.63-2,3.23,0,2,.93,3.49,2.12,3.49S23,13.66,23,12.15C23,10.41,22.3,8.56,21,8.56Z"/><ellipse class="cls-4" cx="11.12" cy="11.73" rx="2.13" ry="2.28"/><circle class="cls-5" cx="10.24" cy="10.44" r="1.2"/><circle class="cls-5" cx="11.12" cy="11.35" r="0.59"/><ellipse class="cls-4" cx="21.24" cy="11.86" rx="1.25" ry="1.71"/><path class="cls-4" d="M15.6,12.58s.47,1.94,1.48,1.94,1.29-1.73,1.29-1.73.43,4.28-1.56,4.28S15.12,13.51,15.6,12.58Z"/><path class="cls-6" d="M16.83,15.81a2.2,2.2,0,0,0-1.5-.32c.17.87.6,1.58,1.48,1.58a1.14,1.14,0,0,0,.79-.3A1.85,1.85,0,0,0,16.83,15.81Z"/><path class="cls-1" d="M7.89,18.63c.58.85,2.56.32,3.23,1.55A1.83,1.83,0,0,1,9.8,22.71c-1,0-2-1.48-2.55-3.11"/><path class="cls-2" d="M7.89,18.63a2.91,2.91,0,0,0,.63.21,6.45,6.45,0,0,0,.66.12,4.62,4.62,0,0,1,1.43.36,1.71,1.71,0,0,1,1,1.3,2.34,2.34,0,0,1-.38,1.56,2,2,0,0,1-.59.58,1.48,1.48,0,0,1-1.66,0,2.76,2.76,0,0,1-.63-.48,4.06,4.06,0,0,1-.84-1.24,2.24,2.24,0,0,1-.24-1.45,4.14,4.14,0,0,1,.85,1.13,7.61,7.61,0,0,0,.74,1.08,1.41,1.41,0,0,0,.95.58.78.78,0,0,0,.47-.16,1.78,1.78,0,0,0,.4-.42,1.7,1.7,0,0,0,.31-1.1,1.14,1.14,0,0,0-.2-.51.72.72,0,0,0-.19-.2,1,1,0,0,0-.23-.17,2.67,2.67,0,0,0-.6-.23l-.67-.16a4.08,4.08,0,0,1-.7-.23A1,1,0,0,1,8.06,19,.61.61,0,0,1,7.89,18.63Z"/><circle class="cls-5" cx="20.48" cy="10.34" r="0.84"/><circle class="cls-5" cx="21.09" cy="10.97" r="0.41"/></symbol></defs><title>coin</title><g id="Layer_2" data-name="Layer 2"><g id="Layer_2-2" data-name="Layer 2"><use width="24" height="24" xlink:href="#New_Symbol_7"/></g></g></svg>