<svg xmlns="http://www.w3.org/2000/svg" xmlns:xlink="http://www.w3.org/1999/xlink" viewBox="0 0 156 27.88"><defs><style>.cls-1{fill:#bafadf;}.cls-2{fill:#04d8e4;}.cls-3{fill:#d0db35;}.cls-4{fill:#09331b;}.cls-5{fill:#fff;}.cls-6{fill:#d7591c;}.cls-7{font-size:20px;font-family:Kanit-ExtraBold, Kanit;font-weight:800;}.cls-8{letter-spacing:-0.02em;}.cls-9{letter-spacing:-0.01em;}.cls-10{letter-spacing:-0.01em;}.cls-11{letter-spacing:-0.02em;}.cls-12{letter-spacing:-0.05em;}.cls-13{opacity:0;}</style><symbol id="Casper" data-name="Casper" viewBox="0 0 172.37 225.25"><path class="cls-1" d="M146.71,138.19c5.47,10.63,19.8,4.37,23.13,13.18,2.54,6.72-6.8,11.28-13.41,11.28-6.83,0-17-7.9-18.38-21.88"/><path class="cls-2" d="M146.71,138.19c1.45,1.11,2.65,2,3.9,2.8a14.62,14.62,0,0,0,4,1.79c2.94.84,6.18.94,9.67,1.84a11.9,11.9,0,0,1,5.22,2.65,9.39,9.39,0,0,1,2.78,5.65,7.74,7.74,0,0,1-.41,3.34,9.62,9.62,0,0,1-1.6,2.78,14.61,14.61,0,0,1-4.57,3.55,18.58,18.58,0,0,1-5.2,1.76,19.36,19.36,0,0,1-5.64.31,20.32,20.32,0,0,1-10-4.7,22.56,22.56,0,0,1-6.33-8.7,13.36,13.36,0,0,1-.5-10.49,77.55,77.55,0,0,1,4.66,8.52,29.82,29.82,0,0,0,5.35,7.11,14.14,14.14,0,0,0,7.39,4.07c.33,0,.65.07,1,.08l1.06-.06a13.56,13.56,0,0,0,2.16-.37,21.12,21.12,0,0,0,4.1-1.5,10.55,10.55,0,0,0,3.28-2.36,4.07,4.07,0,0,0,1.14-3,4.92,4.92,0,0,0-.45-1.65,5.37,5.37,0,0,0-1-1.43,8.2,8.2,0,0,0-3.45-1.88c-2.87-.88-6.29-1.24-9.62-2.51A14.17,14.17,0,0,1,149,143,7.39,7.39,0,0,1,146.71,138.19Z"/><path class="cls-1" d="M31.42,150.42C27.17,173.13,9.55,185,5,188.32s-3.34,4.86,7.9,3.64c-14.89,17-5.47,22.49,7.9,20.36s19.14-5.17,23.39-8.2c-10.63,10.93-10.94,17.62-3.65,18.22s34.86,6.08,90-54.07S164,56.86,152.33,41c-13.43-18.23-62-59.47-112.1-25.52-23.58,16-35.85,50.73-25.1,81.42C23.29,120.16,34.23,135.44,31.42,150.42Z"/><path class="cls-2" d="M46.86,225.25a53.7,53.7,0,0,1-5.6-.33l-.93-.09c-4.7-.39-6.32-2.88-6.86-4.34-.91-2.43-.34-5.44,1.69-9a82.94,82.94,0,0,1-14,3.3c-8.64,1.37-15-.32-17.36-4.65-2.12-3.83-.92-9,3.56-15.27-4.45.11-6.42-.7-7.15-2.59-1.08-2.78,2-5,3.28-6l.69-.5C9.37,182.06,25.08,170.68,29,150c1.78-9.51-2.58-19.54-8.1-32.23-2.57-5.91-5.48-12.61-8.08-20C2,67,13.21,30.74,38.83,13.39,61-1.63,86-4.07,111,6.34c20.13,8.36,35.93,23.09,43.35,33.15C157.79,44.17,169,61.5,169,88c0,27.89-12.33,55.46-36.62,81.94C86.85,219.63,59.72,225.25,46.86,225.25Zm.19-24.19a9.92,9.92,0,0,1-2.71,6.53c-5.75,6.32-6.63,10-6.19,11.15.3.8,1.75,1,2.59,1.11l1,.1c4.11.41,12.66,1.25,26.63-4.91,17.72-7.82,38-24.13,60.35-48.46,23.42-25.53,35.3-52,35.3-78.56,0-25-10.49-41.19-13.71-45.56-5.67-7.69-20.73-23-41.24-31.5C85.33,1.09,62.64,3.3,41.63,17.53,17.83,33.65,7.46,67.4,17.49,96.05c2.54,7.24,5.42,13.85,8,19.69,5.86,13.47,10.49,24.12,8.43,35.14h0c-4.25,22.68-21.18,34.94-26.74,39l0,0c1.25,0,3-.13,5.52-.4l6.37-.69-4.22,4.82c-5.52,6.3-8,11.58-6.57,14.11,1.25,2.27,6,3.11,12.2,2.13,10.31-1.64,15.86-3.81,19.68-6A25.4,25.4,0,0,1,47.05,201.06Z"/><path class="cls-3" d="M105.7,84.72C105.7,68.43,93.63,53,79,53s-26.3,12.41-26.3,28.71,11.54,30.83,28.25,30.83C95.58,112.52,105.7,98.39,105.7,84.72Z"/><path class="cls-4" d="M80.94,113.52c-16.4,0-29.25-14-29.25-31.83C51.69,65,63.68,52,79,52c14.76,0,27.71,15.3,27.71,32.74C106.7,98.63,96.35,113.52,80.94,113.52ZM79,54c-14.19,0-25.3,12.17-25.3,27.71,0,16.73,12,29.83,27.25,29.83,14.21,0,23.76-13.86,23.76-26.8C104.7,68.34,92.69,54,79,54Z"/><path class="cls-3" d="M162.51,84.39c0-12.92-5.47-25.19-14.46-25.19-7,0-14.25,11.25-14.25,22.78,0,12.93,6.25,24.47,15.3,24.47C157,106.45,162.51,95.24,162.51,84.39Z"/><path class="cls-4" d="M149.1,107.45c-9.14,0-16.3-11.19-16.3-25.47,0-12,7.55-23.78,15.25-23.78,10,0,15.46,13.5,15.46,26.19C163.51,95.53,157.72,107.45,149.1,107.45Zm-1-47.25c-6.57,0-13.25,11-13.25,21.78,0,13.16,6.28,23.47,14.3,23.47,7.42,0,12.41-10.89,12.41-21.06C161.51,72.67,156.79,60.2,148.05,60.2Z"/><ellipse class="cls-4" cx="81.47" cy="81.53" rx="14.35" ry="15.34"/><circle class="cls-5" cx="75.54" cy="72.86" r="8.1"/><circle class="cls-5" cx="81.47" cy="79" r="3.97"/><ellipse class="cls-4" cx="149.67" cy="82.45" rx="8.43" ry="11.54"/><path class="cls-4" d="M111.62,87.31s3.19,13.06,10,13.06,8.66-11.7,8.66-11.7,2.88,28.86-10.48,28.86S108.43,93.53,111.62,87.31Z"/><path class="cls-6" d="M119.93,109a14.75,14.75,0,0,0-10.09-2.15c1.11,5.86,4,10.65,10,10.65a7.59,7.59,0,0,0,5.27-2A12.67,12.67,0,0,0,119.93,109Z"/><path class="cls-1" d="M59.67,128c3.95,5.78,17.3,2.21,21.8,10.49,3.72,6.83-2.28,17-8.88,17-6.84,0-13.68-9.95-17.17-21"/><path class="cls-2" d="M59.67,128A18.38,18.38,0,0,0,64,129.44a38.49,38.49,0,0,0,4.42.84c3.08.45,6.4.8,9.68,2.38a11.61,11.61,0,0,1,4.36,3.52,11.38,11.38,0,0,1,2.19,5.28A15.36,15.36,0,0,1,82,152a13.31,13.31,0,0,1-3.92,3.92,10.19,10.19,0,0,1-5.69,1.72A11.49,11.49,0,0,1,66.88,156a20,20,0,0,1-4.22-3.28A28.23,28.23,0,0,1,57,144.36c-1.41-3-2.35-6.24-1.56-9.81a28.45,28.45,0,0,1,5.67,7.66,55.63,55.63,0,0,0,5,7.25c1.82,2.14,4.15,3.92,6.4,3.94a5.38,5.38,0,0,0,3.19-1.13,12.3,12.3,0,0,0,2.67-2.8A11.25,11.25,0,0,0,80.43,142a7.18,7.18,0,0,0-1.32-3.4,7.38,7.38,0,0,0-1.25-1.37,9,9,0,0,0-1.61-1.11,17.9,17.9,0,0,0-4-1.53c-1.44-.43-3-.75-4.52-1.14A27.07,27.07,0,0,1,63,132a7.36,7.36,0,0,1-2.15-1.55A4.38,4.38,0,0,1,59.67,128Z"/><circle class="cls-5" cx="144.53" cy="72.16" r="5.63"/><circle class="cls-5" cx="148.66" cy="76.43" r="2.76"/></symbol><symbol id="New_Symbol" data-name="New Symbol" viewBox="0 0 156 27.88"><use width="172.36" height="225.25" transform="translate(0 0.03) scale(0.11)" xlink:href="#Casper"/><text class="cls-7" transform="translate(28.24 20.2)">G<tspan class="cls-8" x="13.14" y="0">h</tspan><tspan class="cls-9" x="25.12" y="0">o</tspan><tspan class="cls-10" x="37.34" y="0">s</tspan><tspan x="46.98" y="0">t</tspan><tspan class="cls-11" x="54.82" y="0">S</tspan><tspan class="cls-12" x="65.46" y="0">w</tspan><tspan x="80.52" y="0">ap</tspan></text><rect class="cls-13" width="156" height="26"/></symbol></defs><title>brand</title><g id="Layer_2" data-name="Layer 2"><g id="Layer_3" data-name="Layer 3"><use width="156" height="27.88" xlink:href="#New_Symbol"/></g></g></svg>