<svg xmlns="http://www.w3.org/2000/svg" xmlns:xlink="http://www.w3.org/1999/xlink" viewBox="0 0 202 134"><defs><style>.cls-1,.cls-2{fill:#bafadf;}.cls-1{opacity:0;}.cls-3{fill:#04d8e4;}.cls-4{fill:#d0db35;}.cls-5{fill:#09331b;}.cls-6{fill:#fff;}.cls-7{fill:#d7591c;}</style><symbol id="New_Symbol_4" data-name="New Symbol 4" viewBox="0 0 244.21 162"><rect class="cls-1" width="244.21" height="162"/><path class="cls-2" d="M184.28,75.58c5.84,6.39,12.38,12,19.95,15.28a40.14,40.14,0,0,0,11.78,3,38.14,38.14,0,0,0,6,.11,22.6,22.6,0,0,0,5.66-1.16,19.91,19.91,0,0,0,9.22-6.55,15.54,15.54,0,0,0,1.57-2.38,14,14,0,0,0,1.14-2.57,9.9,9.9,0,0,0,.48-5.29,6,6,0,0,0-1-2.25,5.49,5.49,0,0,0-1.9-1.61,8,8,0,0,0-5.41-.44,10.51,10.51,0,0,0-5.15,2.88,6.42,6.42,0,0,0-1.5,2.57,5.2,5.2,0,0,0,.15,3.09,5.31,5.31,0,0,1-.81-3.2,7,7,0,0,1,1.19-3.22,11.58,11.58,0,0,1,5.45-4.22,10.14,10.14,0,0,1,7.25-.2A8.83,8.83,0,0,1,243.63,75a13.47,13.47,0,0,1,.1,7.47,19.5,19.5,0,0,1-3,6.54,23.19,23.19,0,0,1-11.34,8.5,25.88,25.88,0,0,1-7,1.38c-.59,0-1.18,0-1.77,0l-1.71,0c-1.14-.07-2.28-.16-3.41-.31a38,38,0,0,1-12.94-4.19,40.44,40.44,0,0,1-5.66-3.69,46.74,46.74,0,0,1-4.93-4.49A51.13,51.13,0,0,1,184.28,75.58Z"/><path class="cls-2" d="M195.67,148.87a125.73,125.73,0,0,0,17.46.62c5.84-.09,11.6-.74,17.58-.68,1.5,0,3,.15,4.61.28a9.54,9.54,0,0,1,5.08,1.67,6.39,6.39,0,0,1,1.93,2.38,6.16,6.16,0,0,1,.63,3.37,4.89,4.89,0,0,1-.67,1.93,5.31,5.31,0,0,1-1.23,1.37,7.62,7.62,0,0,1-2.63,1.29,21.78,21.78,0,0,1-9.43.09,28.38,28.38,0,0,1-4.37-1.15,17.33,17.33,0,0,1-4-1.95,38,38,0,0,0,12.77.23,14.76,14.76,0,0,0,3.72-1,4.14,4.14,0,0,0,1.2-.78c.24-.27.19-.34.17-.43a2.9,2.9,0,0,0-.36-.83,6.19,6.19,0,0,0-.72-1.06,7.21,7.21,0,0,0-2.78-2,14.74,14.74,0,0,0-4.05-.87c-2.83-.3-5.74-.4-8.66-.51l-8.76-.34C207.28,150.23,201.45,149.71,195.67,148.87Z"/><path class="cls-2" d="M98.73,124.17c-2,7.79-12.32,5.82-13.19,12.09-.66,4.78,6.14,6.37,10.47,5.39s10-7.72,8.78-17.08"/><path class="cls-3" d="M98.73,124.17a30.89,30.89,0,0,1-2.14,2.42,9.52,9.52,0,0,1-2.38,1.77c-1.8,1-3.91,1.54-6.06,2.65a8,8,0,0,0-3,2.52,6.29,6.29,0,0,0-.84,2,6.12,6.12,0,0,0-.14,2.15,5.07,5.07,0,0,0,.77,2.13,6.16,6.16,0,0,0,1.46,1.58A10,10,0,0,0,89.9,143a12.67,12.67,0,0,0,3.67.38,13,13,0,0,0,3.74-.65,13.58,13.58,0,0,0,5.87-4.57,15.15,15.15,0,0,0,2.84-6.65,9,9,0,0,0-1.23-6.94,53.19,53.19,0,0,0-1.79,6.28,20.26,20.26,0,0,1-2.43,5.45,9.52,9.52,0,0,1-4.24,3.77c-.21.08-.42.14-.62.2s-.47.09-.71.12a8.94,8.94,0,0,1-1.47.08,14.86,14.86,0,0,1-2.91-.37,7.16,7.16,0,0,1-2.5-1.06,2.72,2.72,0,0,1-1.19-1.78,3,3,0,0,1,0-1.15,3.45,3.45,0,0,1,.43-1.09,5.7,5.7,0,0,1,2-1.74c1.75-1,3.94-1.75,5.93-3.08A9.48,9.48,0,0,0,98,127.68,4.93,4.93,0,0,0,98.73,124.17Z"/><path class="cls-2" d="M177.34,96c11.13,10.82,25.4,10.49,29.19,10.55s3.72,1.38-2.92,5.07c14.77,3.56,11.72,10.22,3.56,14.23s-12.51,4.59-16,4.57c10.08,1.88,12.84,5.43,9.07,8.59s-16.77,16.85-70.38,5.23S68.29,96.11,68.55,82.85c.3-15.21,11-56.66,51.62-57.46,19.14-.38,39.35,13.94,45.34,35C170.06,76.28,170,88.9,177.34,96Z"/><path class="cls-3" d="M129.49,145.91c-23.6-5.11-41.05-15.46-51.87-30.76C67.34,100.59,66.79,86.72,66.87,82.82c.17-8.4,3.13-22.61,10.93-35,9.71-15.42,24.35-23.76,42.34-24.11,20.79-.41,41,15.13,47,36.17,1.45,5.07,2.45,9.88,3.33,14.12,1.89,9.11,3.38,16.3,8,20.83,10.16,9.87,23.2,10,27.48,10.07h.57c1.09,0,3.64.06,4.12,2,.33,1.32-.43,2.53-2.92,4.2,4.91,1.72,7.55,4.07,7.88,7,.36,3.3-2.45,6.68-7.73,9.28A56.07,56.07,0,0,1,199,131c2.5,1.17,4,2.6,4.42,4.28.26,1,.35,3-2.08,5l-.48.42c-.72.62-1.67,1.44-2.95,2.35C190.82,148.07,173.75,155.5,129.49,145.91Zm76.94-21.54c3.75-1.85,6.06-4.16,5.87-5.89-.22-1.94-3.61-3.88-9.08-5.2l-4.18-1,3.76-2.09c1.47-.82,2.49-1.45,3.18-1.92h0c-4.62-.06-18.66-.22-29.78-11h0c-5.41-5.25-7-12.89-9-22.56-.87-4.18-1.86-8.92-3.27-13.88-5.6-19.61-24.38-34.12-43.69-33.73-17,.33-30.36,7.92-39.56,22.54-8,12.63-10.29,26.86-10.42,33.28-.07,3.64.44,16.6,10.14,30.32,10.31,14.59,27.08,24.49,49.83,29.42,21.69,4.7,39.15,5.77,51.91,3.19,10-2,14.42-5.81,16.51-7.62l.52-.45c.43-.36,1.14-1.05,1-1.61-.24-.9-2.46-2.77-9.29-4l.32-3.33C194.42,128.79,198.52,128.27,206.43,124.37Z"/><path class="cls-4" d="M111.1,88.78c-6.31-8.94-5.68-22.1,2.35-27.78S132.7,57.62,139,66.56s5.62,21.4-3.55,27.88C127.44,100.11,116.4,96.28,111.1,88.78Z"/><path class="cls-5" d="M110.55,89.17c-6.76-9.58-5.59-23,2.51-28.72,8.41-5.93,20.05-3.42,26.51,5.72,6.92,9.8,5.29,22.45-3.72,28.81C127.4,101,116,96.8,110.55,89.17Zm1.1-.78c5,7.1,15.63,11,23.43,5.5C143.47,88,145,76.13,138.47,67c-6-8.53-16.84-10.9-24.63-5.4C106.32,66.86,105.3,79.4,111.65,88.39Z"/><path class="cls-4" d="M79.8,110.62c-5-7.09-6.77-15.94-1.83-19.43,3.82-2.69,12.17.65,16.65,7,5,7.09,6,15.85,1.09,19.36C91.36,120.6,84,116.58,79.8,110.62Z"/><path class="cls-5" d="M79.25,111c-4.92-7-7.18-16.47-1.67-20.37,4.22-3,12.93.56,17.59,7.14,5.53,7.84,5.94,16.75.92,20.3C91.36,121.42,83.57,117.12,79.25,111Zm1.1-.77c3.94,5.58,10.9,9.62,15,6.74,4.4-3.11,3.85-11.2-1.25-18.42C89.89,92.64,82,89.2,78.36,91.74,73.56,95.13,75.8,103.8,80.35,110.24Z"/><ellipse class="cls-5" cx="118.03" cy="77.53" rx="9.65" ry="10.31" transform="translate(-14.36 28.38) rotate(-12.93)"/><circle class="cls-6" cx="115.99" cy="68.65" r="5.44"/><circle class="cls-6" cx="120.8" cy="71.78" r="2.67"/><ellipse class="cls-5" cx="82.58" cy="102.55" rx="5.66" ry="7.76" transform="translate(-43.86 65.82) rotate(-34.96)"/><path class="cls-5" d="M108.85,92.49s3.92,9.57,1.44,13.43c-4.14,6.44-9.19,3.85-9.19,3.85s7.63,7.68,15,2.49S113,94.67,108.85,92.49Z"/><path class="cls-7" d="M112.72,107.63a9.9,9.9,0,0,1,4.7-5.08c1.66,3.64,1.93,7.4-1.35,9.71a9.28,9.28,0,0,1-3.53,1.59A10.41,10.41,0,0,1,112.72,107.63Z"/><path class="cls-2" d="M144.93,99.81c-1.72,4.37-11,4-12.71,10.12-1.42,5,4,10.8,8.36,9.82s7.47-8.56,8.11-16.3"/><path class="cls-3" d="M144.93,99.81a12.48,12.48,0,0,1-2.58,1.57,27.35,27.35,0,0,1-2.78,1.21,21.24,21.24,0,0,0-6,3,8,8,0,0,0-2.34,3,7.67,7.67,0,0,0-.64,3.78,10.36,10.36,0,0,0,3.24,6.5,9.13,9.13,0,0,0,3.16,2,7,7,0,0,0,4,.28,7.76,7.76,0,0,0,3.39-1.91,13.55,13.55,0,0,0,2.28-2.78,19.22,19.22,0,0,0,2.48-6.29,10.07,10.07,0,0,0-.45-6.67,19.41,19.41,0,0,0-2.57,5.87,36.13,36.13,0,0,1-2.2,5.49c-.87,1.68-2.13,3.19-3.6,3.54a3.55,3.55,0,0,1-2.26-.27,7.66,7.66,0,0,1-2.16-1.43,7.51,7.51,0,0,1-2.47-4.57,4.82,4.82,0,0,1,.35-2.43,4.87,4.87,0,0,1,.62-1.08,6.6,6.6,0,0,1,.88-1,12,12,0,0,1,2.39-1.59c.88-.5,1.83-.94,2.79-1.42a19.55,19.55,0,0,0,2.88-1.7,4.73,4.73,0,0,0,1.17-1.34A2.84,2.84,0,0,0,144.93,99.81Z"/><circle class="cls-6" cx="80.16" cy="96.48" r="3.78"/><circle class="cls-6" cx="83.64" cy="98.43" r="1.86"/></symbol></defs><title>pan-bg</title><g id="Layer_2" data-name="Layer 2"><g id="Layer_3" data-name="Layer 3"><use width="244.21" height="162" transform="scale(0.83 0.83)" xlink:href="#New_Symbol_4"/></g></g></svg>