<svg xmlns="http://www.w3.org/2000/svg" xmlns:xlink="http://www.w3.org/1999/xlink" viewBox="0 0 64 64"><defs><style>.cls-1{fill:none;}.cls-2{fill:#dbdbdb;}.cls-3{fill:#9fa1a5;}.cls-4{fill:#04d8e4;}.cls-5{fill:#bafadf;}.cls-6,.cls-7{fill:#fff;}.cls-10,.cls-7{opacity:0.5;}.cls-8{fill:#979799;}.cls-9{fill:#c1c1c1;}.cls-11{fill:#d0db35;}.cls-12{fill:#09331b;}.cls-13{fill:#d7591c;}</style><symbol id="New_Symbol_2" data-name="New Symbol 2" viewBox="0 0 620 620"><rect class="cls-1" width="620" height="620"/><circle class="cls-2" cx="310" cy="348.42" r="174.32" transform="translate(-155.58 321.25) rotate(-45)"/><path class="cls-3" d="M310,174.1A174.32,174.32,0,1,0,484.32,348.42,174.32,174.32,0,0,0,310,174.1Zm0,333.11A158.79,158.79,0,1,1,468.79,348.42,158.79,158.79,0,0,1,310,507.21Z"/><circle class="cls-4" cx="284.84" cy="423.05" r="23.36"/><circle class="cls-5" cx="283.34" cy="419.22" r="17.62"/><circle class="cls-6" cx="274.62" cy="409.04" r="5.53"/><circle class="cls-4" cx="255.68" cy="445.56" r="23.36"/><circle class="cls-5" cx="254.18" cy="441.72" r="17.62"/><circle class="cls-6" cx="245.45" cy="431.55" r="5.53"/><circle class="cls-4" cx="367.09" cy="451.3" r="23.36"/><circle class="cls-5" cx="365.6" cy="447.47" r="17.62"/><circle class="cls-6" cx="356.87" cy="437.29" r="5.53"/><circle class="cls-4" cx="316.06" cy="495.73" r="23.36"/><circle class="cls-5" cx="314.56" cy="491.9" r="17.62"/><circle class="cls-6" cx="305.83" cy="481.72" r="5.53"/><circle class="cls-4" cx="459.6" cy="365.4" r="23.36"/><circle class="cls-5" cx="458.1" cy="361.57" r="17.62"/><circle class="cls-6" cx="449.38" cy="351.39" r="5.53"/><circle class="cls-4" cx="449.38" cy="399.69" r="23.36"/><circle class="cls-5" cx="447.88" cy="395.86" r="17.62"/><circle class="cls-6" cx="439.15" cy="385.68" r="5.53"/><circle class="cls-4" cx="420.49" cy="424.11" r="23.36"/><circle class="cls-5" cx="419" cy="420.28" r="17.62"/><circle class="cls-6" cx="410.27" cy="410.11" r="5.53"/><circle class="cls-4" cx="402.66" cy="465.09" r="23.36"/><circle class="cls-5" cx="401.17" cy="461.26" r="17.62"/><circle class="cls-6" cx="392.44" cy="451.08" r="5.53"/><circle class="cls-4" cx="360.19" cy="489.47" r="23.36"/><circle class="cls-5" cx="358.69" cy="485.64" r="17.62"/><circle class="cls-6" cx="349.97" cy="475.46" r="5.53"/><circle class="cls-4" cx="334.71" cy="426.87" r="23.36"/><circle class="cls-5" cx="333.22" cy="423.04" r="17.62"/><circle class="cls-6" cx="324.49" cy="412.86" r="5.53"/><circle class="cls-4" cx="298.94" cy="454.9" r="23.36"/><circle class="cls-5" cx="297.44" cy="451.07" r="17.62"/><circle class="cls-6" cx="288.72" cy="440.89" r="5.53"/><circle class="cls-4" cx="269.09" cy="491.9" r="23.36"/><circle class="cls-5" cx="267.59" cy="488.07" r="17.62"/><circle class="cls-6" cx="258.87" cy="477.89" r="5.53"/><circle class="cls-4" cx="208.96" cy="462.28" r="23.36"/><circle class="cls-5" cx="207.47" cy="458.45" r="17.62"/><circle class="cls-6" cx="198.74" cy="448.27" r="5.53"/><circle class="cls-4" cx="208.96" cy="412.86" r="23.36"/><circle class="cls-5" cx="207.47" cy="409.03" r="17.62"/><circle class="cls-6" cx="198.74" cy="398.85" r="5.53"/><circle class="cls-4" cx="210.56" cy="382.07" r="23.36"/><circle class="cls-5" cx="209.06" cy="378.23" r="17.62"/><circle class="cls-6" cx="200.33" cy="368.06" r="5.53"/><circle class="cls-4" cx="188.46" cy="354.88" r="23.36"/><circle class="cls-5" cx="186.96" cy="351.05" r="17.62"/><circle class="cls-6" cx="178.23" cy="340.87" r="5.53"/><circle class="cls-4" cx="160.4" cy="372.5" r="23.36"/><circle class="cls-5" cx="158.9" cy="368.66" r="17.62"/><circle class="cls-6" cx="150.18" cy="358.49" r="5.53"/><circle class="cls-4" cx="168.01" cy="401.6" r="23.36"/><circle class="cls-5" cx="166.51" cy="397.77" r="17.62"/><circle class="cls-6" cx="157.78" cy="387.59" r="5.53"/><circle class="cls-4" cx="189.85" cy="438.92" r="23.36"/><circle class="cls-5" cx="188.35" cy="435.09" r="17.62"/><circle class="cls-6" cx="179.62" cy="424.92" r="5.53"/><circle class="cls-4" cx="235.17" cy="414.57" r="23.36"/><circle class="cls-5" cx="233.67" cy="410.73" r="17.62"/><circle class="cls-6" cx="224.95" cy="400.56" r="5.53"/><circle class="cls-4" cx="226.68" cy="472.37" r="23.36"/><circle class="cls-5" cx="225.18" cy="468.54" r="17.62"/><circle class="cls-6" cx="216.46" cy="458.36" r="5.53"/><circle class="cls-4" cx="250.98" cy="337.23" r="23.36"/><circle class="cls-5" cx="249.48" cy="333.4" r="17.62"/><circle class="cls-6" cx="240.75" cy="323.22" r="5.53"/><circle class="cls-4" cx="181.23" cy="270.83" r="23.36"/><circle class="cls-5" cx="179.74" cy="267" r="17.62"/><circle class="cls-6" cx="171.01" cy="256.82" r="5.53"/><circle class="cls-4" cx="163.48" cy="313.87" r="23.36"/><circle class="cls-5" cx="161.99" cy="310.04" r="17.62"/><circle class="cls-6" cx="153.26" cy="299.86" r="5.53"/><circle class="cls-4" cx="369.08" cy="305.39" r="23.36"/><circle class="cls-5" cx="367.59" cy="301.56" r="17.62"/><circle class="cls-6" cx="358.86" cy="291.38" r="5.53"/><path class="cls-7" d="M254.38,256.56h0a56.81,56.81,0,0,0,5.94,45.95L332.15,420h0a34.06,34.06,0,0,0,8-48.42Z"/><path class="cls-7" d="M292.89,242h0a38.5,38.5,0,0,0,4,31.14l48.68,79.62h0A23.08,23.08,0,0,0,351,319.93Z"/><path class="cls-7" d="M350.68,416.67A139.13,139.13,0,0,1,236.3,198.31,167.22,167.22,0,1,0,477.21,348.42c0-4-.16-8-.44-12A139.14,139.14,0,0,1,350.68,416.67Z"/><path class="cls-8" d="M450.92,618.16a6.51,6.51,0,0,1-5.74-3.44L304.27,351.49a6.5,6.5,0,1,1,11.46-6.14L456.64,608.59a6.5,6.5,0,0,1-5.72,9.57Z"/><path class="cls-8" d="M450.91,618.16H169.09a6.5,6.5,0,0,1,0-13H450.91a6.5,6.5,0,0,1,0,13Z"/><path class="cls-8" d="M169.08,618.16a6.5,6.5,0,0,1-5.72-9.57L304.27,345.35a6.5,6.5,0,1,1,11.46,6.14L174.82,614.72A6.51,6.51,0,0,1,169.08,618.16Z"/><circle class="cls-9" cx="310" cy="348.42" r="18.73"/><path class="cls-5" d="M398.57,147.19c8.44,11,23.5.89,29.12,10.26,4.29,7.14-5.43,14.27-13,15.63-7.8,1.42-21.05-5.49-25.5-21.15"/><path class="cls-4" d="M398.57,147.19a55,55,0,0,0,5,2.39,16.72,16.72,0,0,0,5,1.2c3.53.35,7.24-.2,11.41.1a13.75,13.75,0,0,1,6.51,2,10.59,10.59,0,0,1,2.66,2.55,10.07,10.07,0,0,1,1.67,3.32,8.67,8.67,0,0,1,.23,3.89,10.8,10.8,0,0,1-1.25,3.5,17.08,17.08,0,0,1-4.48,5,21.6,21.6,0,0,1-5.57,3.09,22.35,22.35,0,0,1-6.37,1.51A23.39,23.39,0,0,1,401,172.41a26.14,26.14,0,0,1-9-8.62c-2.31-3.44-3.66-7.6-2.74-11.86a92,92,0,0,1,7.08,8.75,34.85,34.85,0,0,0,7.56,7c2.82,1.87,6.16,3.23,9.28,3.11a8,8,0,0,0,1.12-.11c.4-.08.8-.17,1.21-.28a16.62,16.62,0,0,0,2.38-.87,24.65,24.65,0,0,0,4.37-2.56,12.2,12.2,0,0,0,3.25-3.38,4.64,4.64,0,0,0,.69-3.63,5.64,5.64,0,0,0-.86-1.79,6,6,0,0,0-1.42-1.43,9.68,9.68,0,0,0-4.33-1.43c-3.45-.41-7.43-.11-11.5-.88a16.13,16.13,0,0,1-5.9-2.19A8.47,8.47,0,0,1,398.57,147.19Z"/><path class="cls-5" d="M386.38,184.85c50.51-80,15.14-134-1.51-149.74-19.09-18-83-55-133.18-5.92-23.6,23.1-30.4,65.3-11.79,98.09,14.13,24.87,29.76,40,29.66,57.72A62.67,62.67,0,0,1,261,216c13.06,3.47,29.43,5.54,47.2,5.54,24,0,45.44-3.76,59.62-9.67C373.68,204.1,379.88,195.14,386.38,184.85Z"/><path class="cls-1" d="M250,235.05c1.43-.29,3.43-.77,6.22-1.6l7.13-2.1-3.82,6.37c-5,8.33-6.7,14.86-4.58,17.46,1.9,2.33,7.54,2.29,14.36-.09,14.35-5,20-9.46,23.87-13.49l4.49,3.64c-6.69,9.95-7.09,14.93-6.26,16.31.51.86,2.21.83,3.18.74.35,0,.75-.07,1.18-.1,4.77-.39,14.69-1.19,29.36-11.11,12.06-8.17,24.63-20.65,37.54-37.24-14,4.78-33.22,7.73-54.47,7.73a192.46,192.46,0,0,1-44.29-4.81A87.35,87.35,0,0,1,250,235Z"/><g class="cls-10"><path class="cls-5" d="M308.17,221.57c-17.77,0-34.14-2.07-47.2-5.54a87.89,87.89,0,0,1-13.72,17.68c-4.51,4.75-2.81,6.23,9.76,2.52-13.46,22.49-1.58,26.78,13.23,21.59s20.77-9.85,25-14.2c-9.87,14.68-8.83,22.37-.39,21.55,7.36-.71,33.05-.4,73-53.27C353.61,217.81,332.17,221.57,308.17,221.57Z"/><path class="cls-4" d="M325.1,251.08c-14.67,9.92-24.59,10.72-29.36,11.11-.43,0-.83.06-1.18.1-1,.09-2.67.12-3.18-.74-.83-1.38-.43-6.36,6.26-16.31l-4.49-3.64c-3.91,4-9.52,8.45-23.87,13.49-6.82,2.38-12.46,2.42-14.36.09-2.12-2.6-.41-9.13,4.58-17.46l3.82-6.37-7.13,2.1c-2.79.83-4.79,1.31-6.22,1.6l0,0a87.35,87.35,0,0,0,13.87-18.25c-2-.48-3.94-1-5.81-1.54A83.09,83.09,0,0,1,245.83,231l-.69.72c-1.29,1.36-4.31,4.56-2.51,7.5,1.23,2,3.65,2.52,8.7,1.48-3.81,8.13-4.12,14.22-.9,18.16,3.62,4.44,11.2,5.06,20.77,1.71a96.89,96.89,0,0,0,15.27-6.66c-1.59,4.49-1.61,8-.07,10.62.92,1.55,3.28,4.06,8.72,3.54l1.08-.09a64.45,64.45,0,0,0,6.46-.79c12.79-2.32,37.06-11.76,70.71-57.92a71,71,0,0,1-10.73,4.58C349.73,230.43,337.16,242.91,325.1,251.08Z"/></g><path class="cls-4" d="M413.66,85.33c-5.48-30.26-21.9-47.7-26.8-52.33-10.54-9.95-31.62-23.47-56.31-28.85-30.72-6.7-58.7,1.25-80.89,23C224,52.21,218.75,95.89,237.38,128.71c4.5,7.92,9.21,15,13.37,21.17,8.93,13.34,16,23.88,15.91,35.1a60.09,60.09,0,0,1-8.59,30.24c1.87.54,3.8,1.06,5.81,1.54A65.32,65.32,0,0,0,272.46,185c.08-13-7.41-24.18-16.89-38.35-4.1-6.13-8.75-13.07-13.15-20.82C225,95.24,229.9,54.58,253.72,31.26c21-20.58,46.46-27.79,75.6-21.45,25.16,5.48,45.51,19.81,53.56,27.41,4.58,4.32,19.91,20.63,25.08,49.15,5.49,30.34-2.59,63-24,96.93q-10.77,17.07-21.29,30.54a71,71,0,0,0,10.73-4.58c4.95-6.8,10.11-14.38,15.46-22.86C411.07,151.16,419.42,117.15,413.66,85.33Z"/><path class="cls-11" d="M340.72,94.67C337.35,76.08,320.38,61,303.68,64s-27.45,19.61-24.07,38.2,19.55,32.79,38.61,29.33C334.92,128.48,343.55,110.27,340.72,94.67Z"/><path class="cls-12" d="M318.43,132.65c-18.72,3.4-36.27-9.9-40-30.27-3.44-19,7.54-36.37,25-39.54,16.84-3.06,34.78,11.72,38.39,31.63C344.74,110.33,336,129.46,318.43,132.65ZM303.88,65.12c-16.19,2.94-26.35,19.12-23.13,36.85,3.46,19.09,19.83,31.56,37.26,28.4,16.22-2.94,24.25-20.72,21.57-35.49C336.19,76.19,319.51,62.29,303.88,65.12Z"/><path class="cls-11" d="M405.47,82.54C402.79,67.79,394,54.94,383.75,56.8c-7.93,1.44-13.92,15.77-11.54,28.93,2.68,14.75,12.2,26.62,22.52,24.75C403.77,108.84,407.71,94.92,405.47,82.54Z"/><path class="cls-12" d="M394.94,111.62c-10.43,1.89-20.91-9.39-23.87-25.68-2.48-13.69,3.7-28.69,12.48-30.28C395,53.58,404,67.85,406.61,82.33,408.91,95,404.77,109.84,394.94,111.62ZM384,57.94c-7.49,1.36-12.84,15.28-10.61,27.58,2.73,15,12,25.48,21.17,23.82,8.47-1.54,11.91-15,9.81-26.59C401.9,69.37,393.94,56.13,384,57.94Z"/><ellipse class="cls-12" cx="312.42" cy="96.05" rx="16.64" ry="17.79" transform="translate(-12.12 57.28) rotate(-10.28)"/><circle class="cls-6" cx="303.86" cy="87.38" r="9.39"/><circle class="cls-6" cx="311.89" cy="93.16" r="4.61"/><ellipse class="cls-12" cx="390.42" cy="82.98" rx="9.78" ry="13.39" transform="translate(-8.54 70.99) rotate(-10.28)"/><path class="cls-12" d="M348,96.39s6.34,14.25,14.14,12.83,7.46-15.13,7.46-15.13,9.27,32.33-6,35.1S345.66,104.16,348,96.39Z"/><path class="cls-13" d="M362,119.46a17.07,17.07,0,0,0-12-.36c2.47,6.45,6.78,11.32,13.59,10.09a8.84,8.84,0,0,0,5.61-3.4A14.78,14.78,0,0,0,362,119.46Z"/><path class="cls-5" d="M297.16,153.59c5.7,5.77,20.19-1.06,27,7.45,5.66,7,.92,19.88-6.62,21.25-7.8,1.41-17.65-8.53-23.92-20.37"/><path class="cls-4" d="M297.16,153.59a21.46,21.46,0,0,0,5.17.74,43.22,43.22,0,0,0,5.23,0c3.6-.12,7.46-.41,11.53.72a13.28,13.28,0,0,1,9.3,8.68,17.93,17.93,0,0,1-.75,12.51,15.69,15.69,0,0,1-3.66,5.29,11.89,11.89,0,0,1-6.14,3.14,13.41,13.41,0,0,1-6.68-.73,23.53,23.53,0,0,1-5.48-2.86,32.92,32.92,0,0,1-8.21-8.32c-2.22-3.11-4-6.63-3.81-10.88,3.59,2.22,5.79,4.9,8.06,7.57a64.89,64.89,0,0,0,7.21,7.24c2.52,2.06,5.55,3.61,8.12,3.17a6.18,6.18,0,0,0,3.4-2,13.59,13.59,0,0,0,2.47-3.74,13,13,0,0,0,.82-8.92,8.32,8.32,0,0,0-2.21-3.62,7.76,7.76,0,0,0-1.71-1.29,9.68,9.68,0,0,0-2.06-.94,20.52,20.52,0,0,0-4.87-.92c-1.73-.19-3.53-.25-5.38-.37a31.37,31.37,0,0,1-5.72-.74,8.38,8.38,0,0,1-2.78-1.33A5,5,0,0,1,297.16,153.59Z"/><circle class="cls-6" cx="382.43" cy="72.3" r="6.53"/><circle class="cls-6" cx="388.02" cy="76.32" r="3.2"/></symbol></defs><title>ticket</title><g id="Layer_2" data-name="Layer 2"><g id="Layer_3" data-name="Layer 3"><use width="620" height="620" transform="scale(0.1)" xlink:href="#New_Symbol_2"/></g></g></svg>